<?xml version="1.0" encoding="UTF-8" standalone="no"?>
<!DOCTYPE svg PUBLIC "-//W3C//DTD SVG 1.1//EN" "http://www.w3.org/Graphics/SVG/1.1/DTD/svg11.dtd">
<svg width="100%" height="100%" viewBox="0 0 2500 500" version="1.1" xmlns="http://www.w3.org/2000/svg" xmlns:xlink="http://www.w3.org/1999/xlink" xml:space="preserve" xmlns:serif="http://www.serif.com/" style="fill-rule:evenodd;clip-rule:evenodd;stroke-linejoin:round;stroke-miterlimit:1.41421;">
    <g id="g5" transform="matrix(1,0,0,1,2000,0)">
        <g transform="matrix(1.00192,0,0,1.00192,-1.51461,-2.80612)">
            <rect x="1.512" y="2.801" width="499.043" height="499.043" style="fill:rgb(235,235,235);"/>
            <path d="M500.555,501.844L1.512,501.844L1.512,2.801L500.555,2.801L500.555,501.844ZM2.898,500.457L499.168,500.457L499.168,4.187L2.898,4.187L2.898,500.457Z"/>
        </g>
        <g transform="matrix(0.902379,0,0,1.12092,26.5111,-2293.71)">
            <ellipse cx="247.873" cy="2410.95" rx="58.451" ry="6.639" style="fill:rgb(155,155,155);"/>
        </g>
        <g transform="matrix(1,0,0,1,0,230)">
            <path d="M250.518,100.328C278.276,100.328 300.813,122.864 300.813,150.623C300.813,178.382 278.276,181.242 250.518,181.242C222.759,181.242 200.223,178.382 200.223,150.623C200.223,122.864 222.759,100.328 250.518,100.328Z"/>
        </g>
    </g>
    <g id="g4" transform="matrix(1,0,0,1,1500,0)">
        <g transform="matrix(1.00192,0,0,1.00192,-1.51461,-2.80612)">
            <rect x="1.512" y="2.801" width="499.043" height="499.043" style="fill:rgb(235,235,235);"/>
            <path d="M500.555,501.844L1.512,501.844L1.512,2.801L500.555,2.801L500.555,501.844ZM2.898,500.457L499.168,500.457L499.168,4.187L2.898,4.187L2.898,500.457Z"/>
        </g>
        <g transform="matrix(0.902379,0,0,1.12092,29.0697,-2293.71)">
            <ellipse cx="247.873" cy="2410.95" rx="58.451" ry="6.639" style="fill:rgb(155,155,155);"/>
        </g>
        <g transform="matrix(1,0,0,1,1,217)">
            <path d="M250.518,100.328C278.276,100.328 300.813,122.864 300.813,150.623C300.813,178.382 278.276,193.233 250.518,193.233C222.759,193.233 200.223,178.382 200.223,150.623C200.223,122.864 222.759,100.328 250.518,100.328Z"/>
        </g>
    </g>
    <g id="g3" transform="matrix(1,0,0,1,1000,0)">
        <g transform="matrix(1.00192,0,0,1.00192,-1.51461,-2.80612)">
            <rect x="1.512" y="2.801" width="499.043" height="499.043" style="fill:rgb(235,235,235);"/>
            <path d="M500.555,501.844L1.512,501.844L1.512,2.801L500.555,2.801L500.555,501.844ZM2.898,500.457L499.168,500.457L499.168,4.187L2.898,4.187L2.898,500.457Z"/>
        </g>
        <g transform="matrix(1,0,0,1,0,130)">
            <circle cx="250.518" cy="150.623" r="50.295"/>
        </g>
    </g>
    <g id="g2" transform="matrix(1,0,0,1,500,0)">
        <g transform="matrix(1.00192,0,0,1.00192,-1.51461,-2.80612)">
            <rect x="1.512" y="2.801" width="499.043" height="499.043" style="fill:rgb(235,235,235);"/>
            <path d="M500.555,501.844L1.512,501.844L1.512,2.801L500.555,2.801L500.555,501.844ZM2.898,500.457L499.168,500.457L499.168,4.187L2.898,4.187L2.898,500.457Z"/>
        </g>
        <g transform="matrix(1,0,0,1,0,30)">
            <circle cx="250.518" cy="150.623" r="50.295"/>
        </g>
    </g>
    <g id="g1">
        <g transform="matrix(1.00192,0,0,1.00192,-1.51461,-2.80612)">
            <rect x="1.512" y="2.801" width="499.043" height="499.043" style="fill:rgb(235,235,235);"/>
            <path d="M500.555,501.844L1.512,501.844L1.512,2.801L500.555,2.801L500.555,501.844ZM2.898,500.457L499.168,500.457L499.168,4.187L2.898,4.187L2.898,500.457Z"/>
        </g>
        <circle cx="250.518" cy="150.623" r="50.295"/>
    </g>
</svg>
