<?xml version="1.0" encoding="UTF-8" standalone="no"?>
<!DOCTYPE svg PUBLIC "-//W3C//DTD SVG 1.1//EN" "http://www.w3.org/Graphics/SVG/1.1/DTD/svg11.dtd">
<svg width="100%" height="100%" viewBox="0 0 3300 500" version="1.1" xmlns="http://www.w3.org/2000/svg" xmlns:xlink="http://www.w3.org/1999/xlink" xml:space="preserve" xmlns:serif="http://www.serif.com/" style="fill-rule:evenodd;clip-rule:evenodd;stroke-linejoin:round;stroke-miterlimit:1.41421;">
    <g id="bkg">
        <g transform="matrix(0.601151,0,0,1.00192,-0.908767,-2.80612)">
            <rect x="1.512" y="2.801" width="499.043" height="499.043" style="fill:rgb(235,235,235);"/>
            <path d="M500.555,501.844L1.512,501.844L1.512,2.801L500.555,2.801L500.555,501.844ZM3.822,500.457L498.244,500.457L498.244,4.187L3.822,4.187L3.822,500.457Z"/>
        </g>
        <g transform="matrix(0.601151,0,0,1.00192,299.091,-2.80612)">
            <rect x="1.512" y="2.801" width="499.043" height="499.043" style="fill:rgb(235,235,235);"/>
            <path d="M500.555,501.844L1.512,501.844L1.512,2.801L500.555,2.801L500.555,501.844ZM3.822,500.457L498.244,500.457L498.244,4.187L3.822,4.187L3.822,500.457Z"/>
        </g>
        <g transform="matrix(0.601151,0,0,1.00192,599.091,-2.80612)">
            <rect x="1.512" y="2.801" width="499.043" height="499.043" style="fill:rgb(235,235,235);"/>
            <path d="M500.555,501.844L1.512,501.844L1.512,2.801L500.555,2.801L500.555,501.844ZM3.822,500.457L498.244,500.457L498.244,4.187L3.822,4.187L3.822,500.457Z"/>
        </g>
        <g transform="matrix(0.601151,0,0,1.00192,899.091,-2.80612)">
            <rect x="1.512" y="2.801" width="499.043" height="499.043" style="fill:rgb(235,235,235);"/>
            <path d="M500.555,501.844L1.512,501.844L1.512,2.801L500.555,2.801L500.555,501.844ZM3.822,500.457L498.244,500.457L498.244,4.187L3.822,4.187L3.822,500.457Z"/>
        </g>
        <g transform="matrix(0.601151,0,0,1.00192,1199.09,-2.80612)">
            <rect x="1.512" y="2.801" width="499.043" height="499.043" style="fill:rgb(235,235,235);"/>
            <path d="M500.555,501.844L1.512,501.844L1.512,2.801L500.555,2.801L500.555,501.844ZM3.822,500.457L498.244,500.457L498.244,4.187L3.822,4.187L3.822,500.457Z"/>
        </g>
        <g transform="matrix(0.601151,0,0,1.00192,1499.09,-2.80612)">
            <rect x="1.512" y="2.801" width="499.043" height="499.043" style="fill:rgb(235,235,235);"/>
            <path d="M500.555,501.844L1.512,501.844L1.512,2.801L500.555,2.801L500.555,501.844ZM3.822,500.457L498.244,500.457L498.244,4.187L3.822,4.187L3.822,500.457Z"/>
        </g>
        <g transform="matrix(0.601151,0,0,1.00192,1799.09,-2.80612)">
            <rect x="1.512" y="2.801" width="499.043" height="499.043" style="fill:rgb(235,235,235);"/>
            <path d="M500.555,501.844L1.512,501.844L1.512,2.801L500.555,2.801L500.555,501.844ZM3.822,500.457L498.244,500.457L498.244,4.187L3.822,4.187L3.822,500.457Z"/>
        </g>
        <g transform="matrix(0.601151,0,0,1.00192,2099.09,-2.80612)">
            <rect x="1.512" y="2.801" width="499.043" height="499.043" style="fill:rgb(235,235,235);"/>
            <path d="M500.555,501.844L1.512,501.844L1.512,2.801L500.555,2.801L500.555,501.844ZM3.822,500.457L498.244,500.457L498.244,4.187L3.822,4.187L3.822,500.457Z"/>
        </g>
        <g transform="matrix(0.601151,0,0,1.00192,2399.09,-2.80612)">
            <rect x="1.512" y="2.801" width="499.043" height="499.043" style="fill:rgb(235,235,235);"/>
            <path d="M500.555,501.844L1.512,501.844L1.512,2.801L500.555,2.801L500.555,501.844ZM3.822,500.457L498.244,500.457L498.244,4.187L3.822,4.187L3.822,500.457Z"/>
        </g>
        <g transform="matrix(0.601151,0,0,1.00192,2699.09,-2.80612)">
            <rect x="1.512" y="2.801" width="499.043" height="499.043" style="fill:rgb(235,235,235);"/>
            <path d="M500.555,501.844L1.512,501.844L1.512,2.801L500.555,2.801L500.555,501.844ZM3.822,500.457L498.244,500.457L498.244,4.187L3.822,4.187L3.822,500.457Z"/>
        </g>
        <g transform="matrix(0.601151,0,0,1.00192,2999.09,-2.80612)">
            <rect x="1.512" y="2.801" width="499.043" height="499.043" style="fill:rgb(235,235,235);"/>
            <path d="M500.555,501.844L1.512,501.844L1.512,2.801L500.555,2.801L500.555,501.844ZM3.822,500.457L498.244,500.457L498.244,4.187L3.822,4.187L3.822,500.457Z"/>
        </g>
    </g>
    <g id="g5" transform="matrix(1,0,0,1,2900,0)">
        <g transform="matrix(0.898186,0,0,1.12974,27.864,-2316.25)">
            <ellipse cx="247.873" cy="2410.95" rx="58.451" ry="6.639" style="fill:rgb(155,155,155);"/>
        </g>
        <g transform="matrix(0.994136,0,0,1.01342,0.951426,228.325)">
            <path d="M250.518,100.328C278.276,100.328 300.813,122.864 300.813,150.623C300.813,178.382 278.276,181.242 250.518,181.242C222.759,181.242 200.223,178.382 200.223,150.623C200.223,122.864 222.759,100.328 250.518,100.328Z"/>
        </g>
    </g>
    <g id="g4" transform="matrix(1,0,0,1,2598,0)">
        <g transform="matrix(0.90674,0,0,1.12974,28.2437,-2316.25)">
            <ellipse cx="247.873" cy="2410.95" rx="58.451" ry="6.639" style="fill:rgb(155,155,155);"/>
        </g>
        <g transform="matrix(0.994136,0,0,1.00102,0.951426,218.569)">
            <path d="M250.518,100.328C278.276,100.328 300.813,122.864 300.813,150.623C300.813,178.382 278.276,193.233 250.518,193.233C222.759,193.233 200.223,178.382 200.223,150.623C200.223,122.864 222.759,100.328 250.518,100.328Z"/>
        </g>
    </g>
    <g transform="matrix(0.994136,0,0,0.994136,2300.95,190.26)">
        <g id="g3b">
            <circle cx="250.518" cy="150.623" r="50.295"/>
        </g>
    </g>
    <g transform="matrix(0.994136,0,0,0.994136,2000.95,170.26)">
        <g id="g3a">
            <circle cx="250.518" cy="150.623" r="50.295"/>
        </g>
    </g>
    <g transform="matrix(0.994136,0,0,0.994136,1700.95,130.26)">
        <g id="g3">
            <circle cx="250.518" cy="150.623" r="50.295"/>
        </g>
    </g>
    <g transform="matrix(0.994136,0,0,0.994136,1400.95,80.2602)">
        <g id="g2b">
            <circle cx="250.518" cy="150.623" r="50.295"/>
        </g>
    </g>
    <g transform="matrix(0.994136,0,0,0.994136,1100.95,50.2602)">
        <g id="g2a">
            <circle cx="250.518" cy="150.623" r="50.295"/>
        </g>
    </g>
    <g transform="matrix(0.994136,0,0,0.994136,800.951,30.2602)">
        <g id="g2">
            <circle cx="250.518" cy="150.623" r="50.295"/>
        </g>
    </g>
    <g id="g1b" transform="matrix(0.994136,0,0,0.994136,500.951,20.2602)">
        <circle cx="250.518" cy="150.623" r="50.295"/>
    </g>
    <g id="g1a" transform="matrix(0.994136,0,0,0.994136,200.951,10.2602)">
        <circle cx="250.518" cy="150.623" r="50.295"/>
    </g>
    <g id="g1" transform="matrix(0.994136,0,0,0.994136,-99.0486,0.260217)">
        <circle cx="250.518" cy="150.623" r="50.295"/>
    </g>
</svg>
